<svg width="24" height="24" viewBox="0 0 24 24" fill="none" xmlns="http://www.w3.org/2000/svg">
<path fill-rule="evenodd" clip-rule="evenodd" d="M3.09467 3.09467C4.42914 1.7602 6.42603 1.25 9 1.25H15C17.574 1.25 19.5709 1.7602 20.9053 3.09467C22.2398 4.42914 22.75 6.42603 22.75 9V15C22.75 17.574 22.2398 19.5709 20.9053 20.9053C19.5709 22.2398 17.574 22.75 15 22.75H9C6.42603 22.75 4.42914 22.2398 3.09467 20.9053C1.7602 19.5709 1.25 17.574 1.25 15V9C1.25 6.42603 1.7602 4.42914 3.09467 3.09467ZM4.15533 4.15533C3.2398 5.07086 2.75 6.57397 2.75 9V15C2.75 17.426 3.2398 18.9291 4.15533 19.8447C5.07086 20.7602 6.57397 21.25 9 21.25H15C17.426 21.25 18.9291 20.7602 19.8447 19.8447C20.7602 18.9291 21.25 17.426 21.25 15V9C21.25 6.57397 20.7602 5.07086 19.8447 4.15533C18.9291 3.2398 17.426 2.75 15 2.75H9C6.57397 2.75 5.07086 3.2398 4.15533 4.15533Z" fill="#E9F908"/>
<path fill-rule="evenodd" clip-rule="evenodd" d="M8.9948 8.9948C9.79183 8.19777 10.8728 7.75 12 7.75C12.5581 7.75 13.1108 7.85993 13.6264 8.07351C14.142 8.28709 14.6106 8.60015 15.0052 8.9948C15.3999 9.38945 15.7129 9.85796 15.9265 10.3736C16.1401 10.8892 16.25 11.4419 16.25 12C16.25 12.5581 16.1401 13.1108 15.9265 13.6264C15.7129 14.142 15.3999 14.6106 15.0052 15.0052C14.6106 15.3999 14.142 15.7129 13.6264 15.9265C13.1108 16.1401 12.5581 16.25 12 16.25C10.8728 16.25 9.79183 15.8022 8.9948 15.0052C8.19777 14.2082 7.75 13.1272 7.75 12C7.75 10.8728 8.19777 9.79183 8.9948 8.9948ZM12 9.25C11.2707 9.25 10.5712 9.53973 10.0555 10.0555C9.53973 10.5712 9.25 11.2707 9.25 12C9.25 12.7293 9.53973 13.4288 10.0555 13.9445C10.5712 14.4603 11.2707 14.75 12 14.75C12.3611 14.75 12.7187 14.6789 13.0524 14.5407C13.386 14.4025 13.6892 14.1999 13.9445 13.9445C14.1999 13.6892 14.4025 13.386 14.5407 13.0524C14.6789 12.7187 14.75 12.3611 14.75 12C14.75 11.6389 14.6789 11.2813 14.5407 10.9476C14.4025 10.614 14.1999 10.3108 13.9445 10.0555C13.6892 9.8001 13.386 9.59753 13.0524 9.45933C12.7187 9.32113 12.3611 9.25 12 9.25Z" fill="#E9F908"/>
<path fill-rule="evenodd" clip-rule="evenodd" d="M16.636 7C16.636 6.44772 17.0837 6 17.636 6H17.648C18.2003 6 18.648 6.44772 18.648 7C18.648 7.55228 18.2003 8 17.648 8H17.636C17.0837 8 16.636 7.55228 16.636 7Z" fill="#E9F908"/>
</svg>
